<?xml version="1.0" encoding="UTF-8" standalone="no"?>
<!-- Generator: Adobe Illustrator 19.0.0, SVG Export Plug-In . SVG Version: 6.00 Build 0)  -->

<svg
   version="1.1"
   id="Layer_1"
   x="0px"
   y="0px"
   viewBox="0 0 1000 1000"
   style="enable-background:new 0 0 1000 1000;"
   xml:space="preserve"
   sodipodi:docname="transheart-nomargin.svg"
   inkscape:version="1.3.2 (091e20ef0f, 2023-11-25)"
   xmlns:inkscape="http://www.inkscape.org/namespaces/inkscape"
   xmlns:sodipodi="http://sodipodi.sourceforge.net/DTD/sodipodi-0.dtd"
   xmlns="http://www.w3.org/2000/svg"
   xmlns:svg="http://www.w3.org/2000/svg"><defs
   id="defs1" /><sodipodi:namedview
   id="namedview1"
   pagecolor="#ffffff"
   bordercolor="#000000"
   borderopacity="0.25"
   inkscape:showpageshadow="2"
   inkscape:pageopacity="0.0"
   inkscape:pagecheckerboard="0"
   inkscape:deskcolor="#d1d1d1"
   showgrid="false"
   inkscape:zoom="1.2482843"
   inkscape:cx="284.7909"
   inkscape:cy="453.02181"
   inkscape:window-width="3840"
   inkscape:window-height="2123"
   inkscape:window-x="1143"
   inkscape:window-y="0"
   inkscape:window-maximized="1"
   inkscape:current-layer="Layer_1" />
<style
   type="text/css"
   id="style1">
	.st0{fill:#5DCFF4;}
	.st1{fill:#F6ACB9;}
	.st2{fill:#FFFFFF;}
</style>
<path
   id="XMLID_1_"
   class="st0"
   d="M871.7168579,435c-6.0100098,31.0200195-18,62.4899902-35.8699951,94.1499023  C829.1268921,541.0500488,821.546936,553.0100098,813.1369019,565  c-23.1099854,32.9699707-52.5200195,66.1999512-87.8300171,99.1899414  c-10.9500122,10.2299805-22.960022,20.5700684-35.5499878,30.8200684  c-82.3699951,67.0400391-189.7700195,130.0100098-189.7700195,130.0100098s-107.5100098-62.9399414-189.9099731-130.0100098  c-12.5499878-10.2199707-24.5100098-20.5200195-35.4200439-30.7199707  C239.3068848,631.2700195,209.8768921,598.0100098,186.7669067,565  c-8.3800049-11.9599609-15.9299927-23.8901367-22.6300049-35.7600098  C146.256897,497.5600586,134.2669067,466.0500488,128.256897,435c-4.7299805-24.3300781-5.7800293-48.3901367-3.1400146-72.0300293  c2.3300171-20.8999023,6.6199951-40.2399902,12.8499756-57.9799805  c12.2300415-34.880127,31.9400024-63.5700684,58.9400024-85.6799316c32.8300171-26.8901367,68.5-37.3200684,92.6400146-41.3300781  c12.0800171-1.9899902,24.2900391-2.9899902,36.3300171-2.9899902c37.7199707,0,74.4000244,9.5300293,106.0599976,27.5600586  c29.4400024,16.7800293,52.789978,39.9099121,68.0599976,67.329834  c15.2700195-27.4099121,38.6099854-50.5498047,68.0700073-67.329834  c31.6599731-18.0300293,68.3300171-27.5700684,106.0499878-27.5700684c12.1300049,0,24.3400269,1.0100098,36.3099976,3  c24.1600342,4.0100098,59.8500366,14.4399414,92.6799927,41.3500977  c6.3599854,5.1899414,12.4899902,10.9599609,18.1500244,17.0898438l1.3399658,1.4399414l0.8299561,1.1801758l1.1000977,0.9699707  l1.3898926,1.619873c15.5400391,18.1101074,27.5900879,39.3000488,36.0500488,63.3601074  c6.2900391,17.7900391,10.6000977,37.1501465,12.9200439,57.9899902  C877.5269165,386.6201172,876.4668579,410.6699219,871.7168579,435z" />
<path
   id="XMLID_3_"
   class="st1"
   d="M871.7168579,435c-6.0100098,31.0200195-18,62.4899902-35.8699951,94.1499023  C829.1268921,541.0500488,821.546936,553.0100098,813.1369019,565  c-23.1099854,32.9699707-52.5200195,66.1999512-87.8300171,99.1899414  c-10.9500122,10.2299805-22.960022,20.5700684-35.5499878,30.8200684H310.0769043  c-12.5499878-10.2199707-24.5100098-20.5200195-35.4200439-30.7199707  C239.3068848,631.2700195,209.8768921,598.0100098,186.7669067,565  c-8.3800049-11.9599609-15.9299927-23.8901367-22.6300049-35.7600098  C146.256897,497.5600586,134.2669067,466.0500488,128.256897,435c-4.7299805-24.3300781-5.7800293-48.3901367-3.1400146-72.0300293  c2.3300171-20.8999023,6.6199951-40.2399902,12.8499756-57.9799805h724  c6.2900391,17.7900391,10.6000977,37.1501465,12.9200439,57.9899902  C877.5269165,386.6201172,876.4668579,410.6699219,871.7168579,435z" />
<path
   id="XMLID_5_"
   class="st2"
   d="M871.7168579,435c-6.0100098,31.0200195-18,62.4899902-35.8699951,94.1499023  C829.1268921,541.0500488,821.546936,553.0100098,813.1369019,565H186.7669067  c-8.3800049-11.9599609-15.9299927-23.8901367-22.6300049-35.7600098  C146.256897,497.5600586,134.2669067,466.0500488,128.256897,435H871.7168579z" />
</svg>
